<?xml version="1.0" standalone="no"?>
<!DOCTYPE svg PUBLIC "-//W3C//DTD SVG 20010904//EN"
 "http://www.w3.org/TR/2001/REC-SVG-20010904/DTD/svg10.dtd">
<svg version="1.0" xmlns="http://www.w3.org/2000/svg"
 width="416.000000pt" height="416.000000pt" viewBox="0 0 416.000000 416.000000"
 preserveAspectRatio="xMidYMid meet">

<g transform="translate(0.000000,416.000000) scale(0.100000,-0.100000)"
fill="#000000" stroke="none">
<path d="M978 3390 c-45 -14 -83 -41 -108 -78 -24 -35 -25 -40 -25 -222 0
-186 0 -187 27 -227 16 -24 44 -49 70 -62 44 -21 51 -21 751 -21 l707 0 2
-194 3 -194 273 193 274 193 122 4 c113 3 126 5 163 30 25 16 49 44 63 72 20
43 21 57 18 219 -3 166 -4 175 -28 210 -13 20 -43 46 -65 59 l-40 23 -1090 2
c-600 1 -1102 -2 -1117 -7z m2233 -58 c58 -35 69 -77 69 -248 0 -163 -9 -198
-64 -237 -27 -19 -46 -22 -156 -25 l-125 -4 -245 -173 -245 -173 -3 174 -2
174 -721 0 c-797 0 -764 -3 -812 64 -20 28 -22 45 -25 185 -5 209 15 258 113
282 16 4 514 6 1105 6 l1075 -2 36 -23z"/>
<path d="M1170 3195 l-22 -65 -70 0 -71 0 56 -41 c32 -22 57 -44 57 -48 0 -4
-9 -34 -20 -66 -11 -32 -20 -60 -20 -62 0 -2 24 14 53 37 30 22 57 40 62 40 5
0 32 -18 62 -40 29 -23 53 -39 53 -37 0 2 -9 30 -20 62 -11 32 -20 62 -20 66
0 4 25 26 57 48 l56 41 -71 0 -70 0 -22 65 c-12 36 -23 65 -25 65 -2 0 -13
-29 -25 -65z"/>
<path d="M1614 3197 l-20 -62 -68 -5 -67 -5 50 -38 c28 -20 51 -41 51 -46 0
-5 -9 -37 -19 -70 l-19 -61 44 33 c25 17 51 36 58 41 10 7 29 -2 66 -28 29
-21 54 -36 56 -33 2 2 -5 30 -16 62 -11 32 -18 60 -16 62 2 2 27 22 57 43 l53
40 -72 0 -71 0 -17 60 c-9 33 -20 62 -24 65 -3 2 -15 -24 -26 -58z"/>
<path d="M2056 3195 l-18 -64 -70 -3 -71 -3 56 -38 55 -38 -19 -57 c-11 -31
-18 -60 -17 -64 2 -5 27 8 56 28 l52 37 52 -37 c29 -20 54 -33 56 -28 1 4 -6
33 -17 64 l-19 57 55 38 56 38 -71 3 -70 3 -18 64 c-10 36 -21 65 -24 65 -3 0
-14 -29 -24 -65z"/>
<path d="M2512 3239 c-6 -15 -16 -45 -22 -68 l-11 -41 -71 0 -72 0 53 -40 c30
-21 55 -41 57 -43 2 -2 -5 -30 -16 -62 -11 -32 -18 -60 -16 -62 2 -3 27 12 56
33 37 26 56 35 66 28 7 -5 33 -24 58 -41 l44 -33 -19 61 c-10 33 -19 65 -19
70 0 5 23 26 51 46 l50 38 -67 5 -67 5 -23 65 c-21 62 -22 64 -32 39z"/>
<path d="M2940 3195 l-22 -65 -70 0 -71 0 56 -41 c32 -22 57 -44 57 -48 0 -4
-9 -34 -20 -66 -11 -32 -20 -60 -20 -62 0 -2 24 14 53 37 30 22 57 40 62 40 5
0 32 -18 62 -40 29 -23 53 -39 53 -37 0 2 -9 30 -20 62 -11 32 -20 62 -20 66
0 4 25 26 57 48 l56 41 -71 0 -70 0 -22 65 c-12 36 -23 65 -25 65 -2 0 -13
-29 -25 -65z"/>
<path d="M2035 2511 c-151 -70 -153 -275 -3 -352 44 -22 115 -25 161 -5 39 17
92 71 106 109 14 36 14 108 0 144 -37 98 -166 149 -264 104z"/>
<path d="M1848 2065 c-15 -9 -30 -26 -33 -38 -3 -12 -4 -146 -3 -297 l3 -275
30 -3 c52 -6 55 9 55 253 0 215 4 245 32 245 4 0 8 -258 8 -572 0 -315 4 -578
8 -584 9 -13 46 -34 62 -34 6 0 22 11 35 25 l25 24 0 266 0 265 45 0 45 0 0
-264 c0 -241 2 -266 18 -287 23 -27 75 -30 100 -5 16 15 17 64 17 591 0 316 3
575 6 575 3 0 13 -8 22 -18 14 -16 17 -52 19 -248 l3 -229 31 -3 c54 -5 55 0
52 302 -3 271 -3 276 -26 298 -22 23 -27 23 -275 25 -209 2 -257 0 -279 -12z"/>
</g>
</svg>
