<?xml version="1.0" standalone="no"?>
<!DOCTYPE svg PUBLIC "-//W3C//DTD SVG 20010904//EN"
 "http://www.w3.org/TR/2001/REC-SVG-20010904/DTD/svg10.dtd">
<svg version="1.0" xmlns="http://www.w3.org/2000/svg"
 width="500.000000pt" height="500.000000pt" viewBox="0 0 500.000000 500.000000"
 preserveAspectRatio="xMidYMid meet">

<g transform="translate(0.000000,500.000000) scale(0.100000,-0.100000)"
fill="#000000" stroke="none">
<path d="M1918 4985 c-19 -11 -61 -80 -158 -262 -72 -137 -137 -253 -143 -259
-7 -7 -133 -33 -282 -58 -148 -26 -280 -54 -293 -62 -47 -31 -48 -45 -8 -331
20 -148 39 -277 41 -288 3 -14 -31 -55 -133 -160 -268 -274 -272 -278 -272
-324 0 -39 7 -48 202 -252 150 -155 202 -216 201 -232 -1 -12 -18 -139 -38
-281 -20 -142 -33 -271 -30 -286 12 -53 29 -59 316 -111 150 -27 273 -50 275
-52 3 -3 -45 -87 -311 -547 -491 -849 -499 -863 -499 -896 0 -33 23 -67 58
-86 14 -7 95 1 302 33 156 24 286 40 289 37 4 -3 51 -122 106 -265 61 -156
108 -265 121 -276 59 -50 114 -29 167 62 21 36 112 194 203 351 91 157 232
401 314 543 81 141 151 257 154 257 3 0 73 -116 154 -257 82 -142 223 -386
314 -543 91 -157 182 -315 203 -351 53 -91 108 -112 167 -62 13 11 59 116 118
268 53 138 98 256 101 263 7 17 22 16 303 -28 140 -22 263 -40 272 -40 10 0
32 13 50 29 24 22 32 37 32 63 0 35 -2 38 -499 898 -100 173 -212 367 -248
430 l-66 115 27 7 c15 4 139 28 275 52 261 46 280 53 292 106 3 15 -10 144
-30 286 -20 142 -37 269 -38 280 -1 16 52 79 201 233 195 204 202 213 202 252
0 46 -6 54 -262 314 -110 112 -146 156 -143 170 2 11 21 140 41 288 40 287 39
300 -8 331 -13 8 -145 36 -293 62 -149 26 -275 52 -282 58 -6 6 -71 122 -143
259 -132 248 -153 277 -203 277 -8 0 -129 -56 -269 -125 -140 -69 -260 -125
-267 -125 -6 0 -127 56 -268 125 -141 69 -263 125 -272 125 -9 -1 -28 -7 -43
-15z m332 -330 c128 -63 240 -115 250 -115 10 0 123 52 251 116 127 63 237
113 243 111 6 -3 65 -107 130 -232 65 -124 128 -232 140 -240 12 -7 135 -34
274 -58 140 -25 255 -47 257 -49 2 -2 -13 -118 -33 -258 -19 -140 -33 -267
-29 -281 3 -14 88 -110 187 -214 99 -104 179 -192 178 -196 -2 -4 -85 -93
-185 -198 -172 -179 -183 -193 -183 -228 0 -21 16 -146 34 -278 19 -132 34
-241 33 -242 -1 -1 -118 -21 -261 -46 -226 -39 -261 -47 -281 -68 -13 -13 -76
-124 -140 -246 -64 -123 -118 -223 -119 -223 -2 0 -109 52 -238 115 -129 63
-245 115 -257 115 -11 0 -127 -52 -258 -115 -130 -63 -237 -115 -239 -115 -1
0 -55 100 -118 223 -64 122 -129 233 -144 247 -24 22 -57 30 -285 69 l-258 44
5 26 c12 59 66 466 66 498 0 30 -19 53 -183 224 -100 105 -183 194 -185 198
-1 4 79 92 178 196 101 105 183 199 187 214 4 14 -10 141 -29 281 -20 140 -35
256 -34 258 2 1 118 23 257 48 140 25 264 52 275 59 12 8 59 85 104 172 125
238 161 303 171 303 4 0 112 -52 239 -115z m-451 -2966 c45 -83 81 -152 81
-154 0 -2 -18 -34 -40 -73 -22 -38 -40 -80 -40 -93 0 -34 27 -69 66 -85 29
-12 39 -12 67 0 26 11 46 37 102 136 l70 122 198 99 c180 91 200 98 221 87
l24 -13 -95 -165 c-52 -91 -195 -338 -318 -550 -122 -212 -260 -450 -305 -530
-45 -80 -84 -146 -85 -148 -2 -2 -39 88 -83 200 -44 111 -90 213 -102 225 -16
17 -33 23 -65 23 -37 0 -316 -39 -397 -56 -16 -3 -28 -1 -28 4 0 6 71 133 159
284 87 150 232 400 321 556 90 155 164 282 166 282 1 0 39 -68 83 -151z m1656
-139 c87 -151 229 -398 316 -548 88 -151 159 -278 159 -284 0 -5 -12 -7 -27
-4 -82 17 -361 56 -398 56 -32 0 -49 -6 -65 -23 -12 -12 -58 -114 -102 -225
-44 -112 -81 -202 -83 -200 -1 2 -91 158 -200 348 -109 190 -201 350 -205 355
-4 6 -60 101 -124 213 l-116 203 41 72 c23 40 48 82 55 94 l14 23 88 -44 87
-44 70 -122 c75 -131 100 -154 158 -143 34 7 77 56 77 90 0 14 -18 59 -40 99
-38 67 -40 75 -27 96 8 13 45 81 82 151 37 71 70 125 74 120 5 -4 79 -132 166
-283z"/>
<path d="M2387 4259 c-393 -43 -741 -328 -860 -704 -73 -232 -58 -513 38 -730
68 -153 217 -332 354 -424 90 -61 216 -118 329 -148 85 -23 117 -26 252 -26
136 0 167 3 255 26 314 84 577 314 694 607 56 140 89 377 61 431 -16 28 -67
51 -99 44 -54 -12 -73 -45 -82 -146 -16 -167 -55 -281 -144 -414 -180 -271
-526 -414 -843 -349 -394 81 -672 420 -672 820 0 226 94 441 262 600 93 88
184 143 308 186 93 32 99 33 260 32 152 0 171 -2 245 -27 104 -35 129 -34 166
2 35 35 39 86 9 123 -51 66 -342 119 -533 97z"/>
<path d="M2870 3505 l-355 -355 -145 145 c-96 96 -156 148 -177 154 -64 18
-132 -44 -118 -108 4 -18 71 -92 203 -224 190 -189 200 -197 237 -197 39 0 49
9 442 403 390 389 403 404 403 440 0 54 -43 97 -96 97 -37 0 -52 -13 -394
-355z"/>
<path d="M1653 1108 c-29 -14 -55 -70 -47 -103 9 -34 59 -75 94 -75 16 0 42
11 59 26 26 21 31 33 31 69 0 36 -5 48 -31 69 -32 27 -69 32 -106 14z"/>
<path d="M3241 1094 c-26 -21 -31 -33 -31 -69 0 -36 5 -48 31 -69 41 -34 80
-34 121 3 25 22 32 36 32 66 0 30 -7 44 -32 66 -41 37 -80 37 -121 3z"/>
</g>
</svg>
